<?xml version="1.0" encoding="UTF-8" standalone="no"?>
<svg
   xmlns:dc="http://purl.org/dc/elements/1.1/"
   xmlns:cc="http://creativecommons.org/ns#"
   xmlns:rdf="http://www.w3.org/1999/02/22-rdf-syntax-ns#"
   xmlns:svg="http://www.w3.org/2000/svg"
   xmlns="http://www.w3.org/2000/svg"
   xmlns:sodipodi="http://sodipodi.sourceforge.net/DTD/sodipodi-0.dtd"
   xmlns:inkscape="http://www.inkscape.org/namespaces/inkscape"
   inkscape:export-ydpi="96"
   inkscape:export-xdpi="96"
   inkscape:export-filename="/home/ljaulmes/projects/webexts/CleanLinks/assets/png/javascript.png"
   inkscape:version="1.0 (4035a4fb49, 2020-05-01)"
   height="32"
   width="32"
   sodipodi:docname="javascript.svg"
   id="svg4"
   version="1.1"
   viewBox="0 0 32 32">
  <metadata
     id="metadata10">
    <rdf:RDF>
      <cc:Work
         rdf:about="">
        <dc:format>image/svg+xml</dc:format>
        <dc:type
           rdf:resource="http://purl.org/dc/dcmitype/StillImage" />
        <dc:title></dc:title>
      </cc:Work>
    </rdf:RDF>
  </metadata>
  <defs
     id="defs8" />
  <sodipodi:namedview
     inkscape:document-rotation="0"
     inkscape:current-layer="svg4"
     inkscape:window-maximized="1"
     inkscape:window-y="0"
     inkscape:window-x="0"
     inkscape:cy="18.318058"
     inkscape:cx="9.1322418"
     inkscape:zoom="12.003683"
     fit-margin-bottom="0"
     fit-margin-right="0"
     fit-margin-left="0"
     fit-margin-top="0"
     showgrid="false"
     id="namedview6"
     inkscape:window-height="1015"
     inkscape:window-width="1920"
     inkscape:pageshadow="2"
     inkscape:pageopacity="0"
     guidetolerance="10"
     gridtolerance="10"
     objecttolerance="10"
     borderopacity="1"
     bordercolor="#666666"
     pagecolor="#ffffff" />
  <rect
     ry="3.2491665"
     y="0"
     x="0"
     style="fill:#b1b1b3;fill-opacity:1;stroke-width:0.0507937"
     id="rect2"
     height="32"
     width="32" />
  <path
     id="path4"
     d="M 24.355469 14.521484 C 21.670008 14.521484 19.951172 16.238901 19.951172 18.494141 C 19.951172 20.942391 21.392595 22.098997 23.5625 23.023438 L 24.314453 23.347656 C 25.685881 23.947536 26.503906 24.31264 26.503906 25.34375 C 26.503906 26.2042 25.708859 26.826172 24.462891 26.826172 C 22.979717 26.826172 22.140665 26.05244 21.496094 25 L 19.052734 26.419922 C 19.935528 28.164172 21.738615 29.494141 24.53125 29.494141 C 27.387377 29.494141 29.515625 28.011988 29.515625 25.304688 C 29.515625 22.793448 28.072499 21.675698 25.517578 20.580078 L 24.765625 20.257812 C 23.475467 19.699083 22.916016 19.333731 22.916016 18.431641 C 22.916016 17.701731 23.474707 17.144531 24.355469 17.144531 C 25.218961 17.144531 25.77546 17.507191 26.291016 18.431641 L 28.632812 16.929688 C 27.642336 15.187457 26.267342 14.521484 24.355469 14.521484 z M 14.419922 14.693359 L 14.419922 15.583984 A 0.88239911 0.88239911 0 0 1 14.529297 15.574219 A 0.88239911 0.88239911 0 0 1 15.166016 15.832031 L 17.427734 18.09375 L 17.427734 14.693359 L 14.419922 14.693359 z M 17.427734 20.681641 L 14.419922 23.689453 L 14.419922 24.917969 C 14.419922 26.420959 13.79653 26.806641 12.808594 26.806641 C 12.331529 26.806641 11.986473 26.651406 11.703125 26.40625 L 9.703125 28.408203 C 10.482903 29.058554 11.534128 29.490234 12.9375 29.490234 C 15.602135 29.490234 17.427734 28.072634 17.427734 24.958984 L 17.427734 20.681641 z "
     style="stroke-width:0.05079365" />
  <path
     inkscape:connector-curvature="0"
     style="font-variation-settings:normal;opacity:1;vector-effect:none;fill:#30e60b;fill-opacity:1;fill-rule:evenodd;stroke-width:0.053888;stroke-linecap:butt;stroke-linejoin:miter;stroke-miterlimit:4;stroke-dasharray:none;stroke-dashoffset:0;stroke-opacity:1;stop-color:#000000;stop-opacity:1"
     d="M 17.499152,19.460948 6.4629083,30.497104 0.94478757,24.979027 3.7038485,22.219922 6.4629083,24.979027 14.740091,16.701845 Z"
     id="path855" />
  <rect
     style="font-variation-settings:normal;opacity:1;vector-effect:none;fill:none;fill-opacity:1;stroke:#30e60b;stroke-width:0.969695;stroke-linecap:butt;stroke-linejoin:miter;stroke-miterlimit:4;stroke-dasharray:none;stroke-dashoffset:0;stroke-opacity:1;stop-color:#000000;stop-opacity:1"
     id="rect886"
     width="31.030302"
     height="31.030302"
     x="0.48484749"
     y="0.48484749"
     ry="2.4279165" />
</svg>
