<?xml version="1.0" encoding="UTF-8" standalone="no"?>
<!-- Svg Vector Icons : http://www.onlinewebfonts.com/icon -->

<svg
   xmlns:dc="http://purl.org/dc/elements/1.1/"
   xmlns:cc="http://creativecommons.org/ns#"
   xmlns:rdf="http://www.w3.org/1999/02/22-rdf-syntax-ns#"
   xmlns:svg="http://www.w3.org/2000/svg"
   xmlns="http://www.w3.org/2000/svg"
   xmlns:sodipodi="http://sodipodi.sourceforge.net/DTD/sodipodi-0.dtd"
   xmlns:inkscape="http://www.inkscape.org/namespaces/inkscape"
   version="1.1"
   x="0px"
   y="0px"
   viewBox="0 0 64 64"
   enable-background="new 0 0 1000 1000"
   xml:space="preserve"
   id="svg10"
   sodipodi:docname="clicked.svg"
   width="32"
   height="32"
   inkscape:version="0.92.4 (5da689c313, 2019-01-14)"><defs
   id="defs14" /><sodipodi:namedview
   pagecolor="#ffffff"
   bordercolor="#666666"
   borderopacity="1"
   objecttolerance="10"
   gridtolerance="10"
   guidetolerance="10"
   inkscape:pageopacity="0"
   inkscape:pageshadow="2"
   inkscape:window-width="1920"
   inkscape:window-height="1015"
   id="namedview12"
   showgrid="false"
   scale-x="2"
   inkscape:zoom="0.944"
   inkscape:cx="-311.5337"
   inkscape:cy="351.89055"
   inkscape:window-x="0"
   inkscape:window-y="0"
   inkscape:window-maximized="1"
   inkscape:current-layer="svg10"
   fit-margin-top="0"
   fit-margin-left="0"
   fit-margin-right="0"
   fit-margin-bottom="0" />
<metadata
   id="metadata2"> Svg Vector Icons : http://www.onlinewebfonts.com/icon <rdf:RDF><cc:Work
     rdf:about=""><dc:format>image/svg+xml</dc:format><dc:type
       rdf:resource="http://purl.org/dc/dcmitype/StillImage" /><dc:title></dc:title></cc:Work></rdf:RDF></metadata>

<path
   style="fill:none;fill-rule:evenodd;stroke:#000000;stroke-width:3.99361968;stroke-linecap:butt;stroke-linejoin:round;stroke-miterlimit:4;stroke-dasharray:none;stroke-opacity:1"
   d="m 19.459548,49.872615 -8.624361,-16.61138 c -1.3934298,-2.68389 0.12396,-5.46065 3.67944,-4.04183 3.27068,1.30518 8.517991,6.82654 8.517991,6.82654 v 2.61127 -32.3151203 c 0,-5.72749996 7.66379,-5.85969996 7.66379,0 V 30.582775 17.838425 c 0,-2.55459 7.66378,-2.55459 7.66378,0 v 14.38039 -11.60541 c 0,-2.55459 7.66379,-2.55459 7.66379,0 v 13.24145 -9.23735 c 0,-2.5546 7.66379,-4.54574 7.66379,2.49601 v 19.1165 c 0,4.1048 -1.83729,15.4562 -5.68027,15.7732 h -16.63986 c -4.93738,0 -8.77094,-6.0881 -11.90809,-12.1306 z"
   id="path814"
   inkscape:connector-curvature="0"
   sodipodi:nodetypes="sssccsscsscsscssscss" /></svg>