<?xml version="1.0" encoding="UTF-8" standalone="no"?>
<svg
   xmlns:dc="http://purl.org/dc/elements/1.1/"
   xmlns:cc="http://creativecommons.org/ns#"
   xmlns:rdf="http://www.w3.org/1999/02/22-rdf-syntax-ns#"
   xmlns:svg="http://www.w3.org/2000/svg"
   xmlns="http://www.w3.org/2000/svg"
   xmlns:sodipodi="http://sodipodi.sourceforge.net/DTD/sodipodi-0.dtd"
   xmlns:inkscape="http://www.inkscape.org/namespaces/inkscape"
   width="32"
   height="32"
   viewBox="0 0 32 32"
   version="1.1"
   id="svg4"
   sodipodi:docname="list-edit.svg"
   inkscape:version="0.92.4 (5da689c313, 2019-01-14)">
  <metadata
     id="metadata10">
    <rdf:RDF>
      <cc:Work
         rdf:about="">
        <dc:format>image/svg+xml</dc:format>
        <dc:type
           rdf:resource="http://purl.org/dc/dcmitype/StillImage" />
        <dc:title></dc:title>
      </cc:Work>
    </rdf:RDF>
  </metadata>
  <defs
     id="defs8" />
  <sodipodi:namedview
     pagecolor="#ffffff"
     bordercolor="#666666"
     borderopacity="1"
     objecttolerance="10"
     gridtolerance="10"
     guidetolerance="10"
     inkscape:pageopacity="0"
     inkscape:pageshadow="2"
     inkscape:window-width="1920"
     inkscape:window-height="1015"
     id="namedview6"
     showgrid="false"
     fit-margin-top="0"
     fit-margin-left="0"
     fit-margin-right="0"
     fit-margin-bottom="0"
     inkscape:zoom="9.3249707"
     inkscape:cx="25.518007"
     inkscape:cy="22.239135"
     inkscape:window-x="0"
     inkscape:window-y="0"
     inkscape:window-maximized="1"
     inkscape:current-layer="svg4" />
  <path
     inkscape:connector-curvature="0"
     id="path2"
     style="fill-rule:evenodd;stroke-width:0.06125002"
     d="m 12.482287,23.716641 -0.0217,3.782025 h -8.673 c -1.1498666,0 -2.0906666,-0.9408 -2.0906666,-2.090666 V 6.5919998 c 0,-1.1498665 0.9408,-2.0906662 2.0906666,-2.0906662 h 14.634666 c 1.149867,0 2.124923,0.9413101 2.090667,2.0906662 v 7.2540062 l -7.191815,7.255143 c -0.815204,0.813534 -0.840119,1.29134 -0.838814,2.636399 z M 7.9689164,9.9076664 H 18.422249 V 7.8169998 H 7.9689164 Z m 0,4.1813336 H 18.422249 V 11.998333 H 7.9689164 Z m 0,4.181333 H 14.240916 V 16.179666 H 7.9689164 Z M 5.8782497,20.361 H 3.787583 v 2.090666 h 2.0906667 z m 0,-4.181334 H 3.787583 v 2.090667 h 2.0906667 z m 0,-4.181333 H 3.787583 V 14.089 h 2.0906667 z m 0,-4.1813332 H 3.787583 v 2.0906666 h 2.0906667 z" />
  <path
     inkscape:connector-curvature="0"
     style="fill-rule:evenodd;stroke-width:0.06125001"
     d="m 14.254354,22.787947 v 3.916641 h 3.916641 L 28.61537,16.260213 24.698729,12.343573 Z m 3.916641,2.611094 h -2.611094 v -2.611094 h 1.305547 v 1.305548 h 1.305547 z m 13.447133,-12.141586 -1.697212,1.697211 -3.91664,-3.91664 1.697211,-1.6972112 a 1.3003247,1.3003247 0 0 1 1.840821,0 l 2.07582,2.0758192 c 0.509163,0.509164 0.509163,1.331658 0,1.840821 z"
     id="path2-3" />
</svg>
