<?xml version="1.0" encoding="UTF-8" standalone="no"?>
<svg
   xmlns:dc="http://purl.org/dc/elements/1.1/"
   xmlns:cc="http://creativecommons.org/ns#"
   xmlns:rdf="http://www.w3.org/1999/02/22-rdf-syntax-ns#"
   xmlns:svg="http://www.w3.org/2000/svg"
   xmlns="http://www.w3.org/2000/svg"
   xmlns:sodipodi="http://sodipodi.sourceforge.net/DTD/sodipodi-0.dtd"
   xmlns:inkscape="http://www.inkscape.org/namespaces/inkscape"
   viewBox="0 0 32 32"
   version="1.1"
   id="svg4"
   sodipodi:docname="javascript.svg"
   width="32"
   height="32"
   inkscape:version="0.92.4 (5da689c313, 2019-01-14)">
  <metadata
     id="metadata10">
    <rdf:RDF>
      <cc:Work
         rdf:about="">
        <dc:format>image/svg+xml</dc:format>
        <dc:type
           rdf:resource="http://purl.org/dc/dcmitype/StillImage" />
        <dc:title></dc:title>
      </cc:Work>
    </rdf:RDF>
  </metadata>
  <defs
     id="defs8" />
  <sodipodi:namedview
     pagecolor="#ffffff"
     bordercolor="#666666"
     borderopacity="1"
     objecttolerance="10"
     gridtolerance="10"
     guidetolerance="10"
     inkscape:pageopacity="0"
     inkscape:pageshadow="2"
     inkscape:window-width="1920"
     inkscape:window-height="1015"
     id="namedview6"
     showgrid="false"
     fit-margin-top="0"
     fit-margin-left="0"
     fit-margin-right="0"
     fit-margin-bottom="0"
     inkscape:zoom="11.987302"
     inkscape:cx="-3.3571333"
     inkscape:cy="-11.591233"
     inkscape:window-x="0"
     inkscape:window-y="0"
     inkscape:window-maximized="1"
     inkscape:current-layer="svg4" />
  <rect
     width="32"
     height="32"
     id="rect2"
     style="fill:#cccccc;stroke-width:0.05079365"
     x="0"
     y="0" />
  <path
     d="m 21.495873,25.00013 c 0.644571,1.05244 1.483175,1.82603 2.966349,1.82603 1.245968,0 2.041905,-0.62273 2.041905,-1.48318 0,-1.03111 -0.817778,-1.39631 -2.189206,-1.99619 l -0.751746,-0.32254 c -2.169905,-0.92444 -3.611429,-2.08254 -3.611429,-4.53079 0,-2.25524 1.718349,-3.97206 4.40381,-3.97206 1.911873,0 3.286349,0.66539 4.276825,2.40762 l -2.341587,1.50349 c -0.515556,-0.92445 -1.071746,-1.28864 -1.935238,-1.28864 -0.880762,0 -1.438985,0.55873 -1.438985,1.28864 0,0.90209 0.558731,1.2673 1.848889,1.82603 l 0.751746,0.32203 c 2.554921,1.09562 3.997461,2.21257 3.997461,4.72381 0,2.7073 -2.12673,4.19048 -4.982857,4.19048 -2.792635,0 -4.596826,-1.3308 -5.47962,-3.07505 z M 10.873397,25.2607 c 0.472381,0.83809 0.902095,1.54667 1.935238,1.54667 0.987936,0 1.611175,-0.38654 1.611175,-1.88953 V 14.69308 h 3.006984 v 10.2654 c 0,3.11365 -1.825524,4.53079 -4.490159,4.53079 -2.407619,0 -3.8019048,-1.24597 -4.5109842,-2.74667 z"
     id="path4"
     inkscape:connector-curvature="0"
     style="stroke-width:0.05079365" />
</svg>
