<?xml version="1.0" encoding="UTF-8" standalone="no"?>
<svg
   xmlns:dc="http://purl.org/dc/elements/1.1/"
   xmlns:cc="http://creativecommons.org/ns#"
   xmlns:rdf="http://www.w3.org/1999/02/22-rdf-syntax-ns#"
   xmlns:svg="http://www.w3.org/2000/svg"
   xmlns="http://www.w3.org/2000/svg"
   xmlns:sodipodi="http://sodipodi.sourceforge.net/DTD/sodipodi-0.dtd"
   xmlns:inkscape="http://www.inkscape.org/namespaces/inkscape"
   width="32"
   height="32"
   viewBox="0 0 32 32"
   version="1.1"
   id="svg4"
   sodipodi:docname="refresh.svg"
   inkscape:version="0.92.4 (5da689c313, 2019-01-14)">
  <metadata
     id="metadata10">
    <rdf:RDF>
      <cc:Work
         rdf:about="">
        <dc:format>image/svg+xml</dc:format>
        <dc:type
           rdf:resource="http://purl.org/dc/dcmitype/StillImage" />
        <dc:title></dc:title>
      </cc:Work>
    </rdf:RDF>
  </metadata>
  <defs
     id="defs8" />
  <sodipodi:namedview
     pagecolor="#ffffff"
     bordercolor="#666666"
     borderopacity="1"
     objecttolerance="10"
     gridtolerance="10"
     guidetolerance="10"
     inkscape:pageopacity="0"
     inkscape:pageshadow="2"
     inkscape:window-width="1920"
     inkscape:window-height="1015"
     id="namedview6"
     showgrid="false"
     inkscape:zoom="0.16296602"
     inkscape:cx="-1121.9315"
     inkscape:cy="725.8383"
     inkscape:window-x="0"
     inkscape:window-y="0"
     inkscape:window-maximized="1"
     inkscape:current-layer="svg4"
     fit-margin-top="0"
     fit-margin-left="0"
     fit-margin-right="0"
     fit-margin-bottom="0" />
  <path
     d="m 27.295532,14.4 a 11.066667,11.066667 0 0 1 -3.2,9.6 11.589333,11.589333 0 0 1 -14.4266662,1.44 L 12.788865,22.4 1.3221995,20.8 l 1.6,11.2 3.4933332,-3.36 C 12.708865,33.28 21.615532,32.82667 27.322199,27.2 a 15.669334,15.669334 0 0 0 4.64,-11.89333 z M 7.8821995,8 A 11.589333,11.589333 0 0 1 22.308866,6.56 l -3.12,3.04 11.466666,1.6 -1.6,-11.2 -3.493333,3.36 c -6.293333,-4.64 -15.2,-4.18667 -20.9333329,1.44 -3.3066666,3.28 -4.8,7.6 -4.61333333,11.89333 L 4.6821995,17.62667 A 11.12,11.12 0 0 1 7.8821995,8 Z"
     id="path2"
     inkscape:connector-curvature="0"
     style="fill-rule:evenodd;stroke-width:0.0625" />
</svg>
