<?xml version="1.0" encoding="UTF-8" standalone="no"?>
<svg
   xmlns:dc="http://purl.org/dc/elements/1.1/"
   xmlns:cc="http://creativecommons.org/ns#"
   xmlns:rdf="http://www.w3.org/1999/02/22-rdf-syntax-ns#"
   xmlns:svg="http://www.w3.org/2000/svg"
   xmlns="http://www.w3.org/2000/svg"
   xmlns:sodipodi="http://sodipodi.sourceforge.net/DTD/sodipodi-0.dtd"
   xmlns:inkscape="http://www.inkscape.org/namespaces/inkscape"
   width="32"
   height="32"
   viewBox="0 0 32 32"
   version="1.1"
   id="svg4"
   sodipodi:docname="settings.svg"
   inkscape:version="0.92.4 (5da689c313, 2019-01-14)">
  <metadata
     id="metadata10">
    <rdf:RDF>
      <cc:Work
         rdf:about="">
        <dc:format>image/svg+xml</dc:format>
        <dc:type
           rdf:resource="http://purl.org/dc/dcmitype/StillImage" />
        <dc:title></dc:title>
      </cc:Work>
    </rdf:RDF>
  </metadata>
  <defs
     id="defs8" />
  <sodipodi:namedview
     pagecolor="#ffffff"
     bordercolor="#666666"
     borderopacity="1"
     objecttolerance="10"
     gridtolerance="10"
     guidetolerance="10"
     inkscape:pageopacity="0"
     inkscape:pageshadow="2"
     inkscape:window-width="1920"
     inkscape:window-height="1015"
     id="namedview6"
     showgrid="false"
     inkscape:zoom="5.2149125"
     inkscape:cx="57.473202"
     inkscape:cy="-19.514653"
     inkscape:window-x="0"
     inkscape:window-y="0"
     inkscape:window-maximized="1"
     inkscape:current-layer="svg4" />
  <path
     d="M 31.68,17.736 V 14.152 L 27.3344,12.7184 26.3264,10.2768 28.2976,6.1552 25.7664,3.624 21.712,5.6624 19.2704,4.6544 17.7248,0.3536 h -3.584 L 12.7296,4.6992 10.2432,5.7072 6.1216,3.736 3.5904,6.2672 5.6288,10.3216 4.6208,12.7632 0.32,14.2864 v 3.5616 l 4.3456,1.4336 1.008,2.4416 -1.9712,4.1216 2.5312,2.5312 4.0544,-2.0384 2.4416,1.008 1.5456,4.3008 h 3.5616 l 1.4112,-4.3456 2.4864,-1.008 4.1216,1.9712 2.5312,-2.5312 -2.0608,-4.0544 1.0528,-2.4416 4.3008,-1.5456 z M 16,22.7312 c -3.7184,0 -6.72,-3.0016 -6.72,-6.72 0,-3.7184 3.0016,-6.72 6.72,-6.72 3.7184,0 6.72,3.0016 6.72,6.72 0,3.7184 -3.0016,6.72 -6.72,6.72 z"
     id="path2"
     inkscape:connector-curvature="0"
     style="fill-rule:evenodd;stroke-width:1" />
</svg>
