<?xml version="1.0" encoding="UTF-8" standalone="no"?>
<svg
   xmlns:dc="http://purl.org/dc/elements/1.1/"
   xmlns:cc="http://creativecommons.org/ns#"
   xmlns:rdf="http://www.w3.org/1999/02/22-rdf-syntax-ns#"
   xmlns:svg="http://www.w3.org/2000/svg"
   xmlns="http://www.w3.org/2000/svg"
   xmlns:sodipodi="http://sodipodi.sourceforge.net/DTD/sodipodi-0.dtd"
   xmlns:inkscape="http://www.inkscape.org/namespaces/inkscape"
   viewBox="0 0 0.053333333 0.053333333"
   height="32"
   width="32"
   version="1.0"
   id="svg10"
   sodipodi:docname="stop.svg"
   inkscape:version="0.92.4 (5da689c313, 2019-01-14)">
  <metadata
     id="metadata14">
    <rdf:RDF>
      <cc:Work
         rdf:about="">
        <dc:format>image/svg+xml</dc:format>
        <dc:type
           rdf:resource="http://purl.org/dc/dcmitype/StillImage" />
        <dc:title></dc:title>
      </cc:Work>
    </rdf:RDF>
  </metadata>
  <sodipodi:namedview
     pagecolor="#ffffff"
     bordercolor="#666666"
     borderopacity="1"
     objecttolerance="10"
     gridtolerance="10"
     guidetolerance="10"
     inkscape:pageopacity="0"
     inkscape:pageshadow="2"
     inkscape:window-width="1920"
     inkscape:window-height="1015"
     id="namedview12"
     showgrid="false"
     fit-margin-top="0"
     fit-margin-left="0"
     fit-margin-right="0"
     fit-margin-bottom="0"
     inkscape:zoom="8.9001173"
     inkscape:cx="11.040889"
     inkscape:cy="5.2959899"
     inkscape:window-x="0"
     inkscape:window-y="0"
     inkscape:window-maximized="1"
     inkscape:current-layer="svg10" />
  <defs
     id="defs231" />
  <polyline
     transform="matrix(1.5000386e-4,0,0,-1.5000386e-4,-0.01915175,0.10540095)"
     points="127.92,598.25 127.92,451.12 232.08,347.21 379.2,347.21 483.12,451.12 483.12,598.25 379.2,702.41 232.08,702.41 127.92,598.25 128.16,598.25 "
     style="font-style:normal;font-variant:normal;font-weight:normal;font-stretch:normal;letter-spacing:normal;word-spacing:normal;text-anchor:start;fill:#ffffff;fill-opacity:1;stroke:#1e1916;stroke-width:0.20292;stroke-linecap:butt;stroke-linejoin:miter;stroke-miterlimit:10.43299961;stroke-dasharray:none;stroke-dashoffset:0;stroke-opacity:1"
     id="polyline14" />
  <path
     id="path2518"
     style="font-style:normal;font-variant:normal;font-weight:normal;font-stretch:normal;letter-spacing:normal;word-spacing:normal;text-anchor:start;fill:#ffffff;fill-opacity:1;fill-rule:nonzero;stroke:#ffffff;stroke-width:0;stroke-linecap:round;stroke-linejoin:round;stroke-miterlimit:10.43299961;stroke-dasharray:none;stroke-dashoffset:0;stroke-opacity:1"
     d="m 0.01310505,0.03027901 -4.5e-6,-2.3551e-4 -1.35e-5,-2.3101e-4 -2.1e-5,-2.28e-4 -3.15e-5,-2.2351e-4 -3.9e-5,-2.22e-4 -4.8e-5,-2.1751e-4 -5.85e-5,-2.16e-4 -6.601e-5,-2.1301e-4 -7.65e-5,-2.1e-4 -8.55e-5,-2.0701e-4 -9.45e-5,-2.0551e-4 -1.0351e-4,-2.025e-4 -1.125e-4,-2.0101e-4 -1.23e-4,-1.98e-4 -1.32e-4,-1.9801e-4 -1.4251e-4,-1.935e-4 -1.515e-4,-1.9351e-4 -1.6201e-4,-1.92e-4 -1.71e-4,-1.9051e-4 -1.8151e-4,-1.89e-4 -1.905e-4,-1.875e-4 -2.0101e-4,-1.8601e-4 -2.115e-4,-1.86e-4 -2.2201e-4,-1.8451e-4 -2.31e-4,-1.845e-4 -2.4301e-4,-1.8301e-4 -2.5201e-4,-1.83e-4 -2.625e-4,-1.8301e-4 -2.7301e-4,-1.815e-4 -2.8501e-4,-1.8301e-4 -2.94e-4,-1.815e-4 -3.0451e-4,-1.8151e-4 c -0.001296,-7.5602e-4 -0.001656,-0.001262 -0.001656,-0.00209 0,-0.001152 9.0002e-4,-0.002016 0.002052,-0.002016 0.001116,0 0.001944,7.9202e-4 0.002016,0.002016 h 0.002376 c -7.2e-5,-0.002664 -0.001944,-0.004536 -0.004392,-0.004536 -0.002484,0 -0.004428,0.002016 -0.004428,0.004536 0,0.001548 7.5602e-4,0.00288 0.002124,0.003852 0.003528,0.002376 0.002556,0.001728 0.002916,0.00209 0.001044,7.9202e-4 0.001404,0.001547 0.001404,0.00252 0,0.001439 -0.00108,0.002735 -0.002412,0.002735 -0.001728,0 -0.002448,-0.00162 -0.002448,-0.003132 h -0.001584 c 0,0.002988 0.001692,0.005652 0.004428,0.005652 0.002448,0 0.004392,-0.00234 0.00439212,-0.0052548 z"
     inkscape:connector-curvature="0" />
  <polygon
     id="polygon16"
     style="font-style:normal;font-variant:normal;font-weight:normal;font-stretch:normal;letter-spacing:normal;word-spacing:normal;text-anchor:start;fill:#d8261c;fill-opacity:1;stroke:#d8261c;stroke-width:0;stroke-linecap:butt;stroke-linejoin:round;stroke-miterlimit:10.43299961;stroke-dasharray:none;stroke-dashoffset:0;stroke-opacity:1"
     transform="matrix(1.5000386e-4,0,0,-1.5000386e-4,-0.01915175,0.10540095)"
     points="375.36,356.09 235.68,356.09 136.8,454.96 136.8,594.65 235.68,693.53 375.36,693.53 474.24,594.65 474.24,454.96 " />
  <path
     id="path18"
     style="font-style:normal;font-variant:normal;font-weight:normal;font-stretch:normal;letter-spacing:normal;word-spacing:normal;text-anchor:start;fill:#ffffff;fill-opacity:1;fill-rule:nonzero;stroke:#ffffff;stroke-width:0;stroke-linecap:round;stroke-linejoin:round;stroke-miterlimit:10.43299961;stroke-dasharray:none;stroke-dashoffset:0;stroke-opacity:1"
     d="m 0.00862537,0.01814545 c -0.002442,4.822e-5 -0.004339,0.002123 -0.004339,0.004707 0,0.001606 7.5453e-4,0.002987 0.002123,0.003995 l 0.003293,0.002225 c 1.45e-6,1.06e-6 0.001028,0.001057 0.001028,0.001754 0,0.001195 -8.9928e-4,0.002093 -0.002051,0.002093 -0.001116,0 -0.001946,-8.2313e-4 -0.002018,-0.002093 h -0.002374 c 7.2e-5,0.002763 0.001943,0.004707 0.004391,0.004707 0.002484,0 0.004429,-0.002093 0.004429,-0.004707 0,-0.001606 -7.5828e-4,-0.002987 -0.002126,-0.003995 l -0.003293,-0.002229 h -3.75e-6 c -7.8429e-4,-5.7498e-4 -0.001024,-0.001053 -0.001024,-0.00175 0,-0.001195 8.9929e-4,-0.002093 0.002051,-0.002093 0.001116,0 0.001946,8.2313e-4 0.002018,0.002093 h 0.002378 c -7.2e-5,-0.002763 -0.001947,-0.004707 -0.004395,-0.004707 -2.911e-5,0 -5.73e-5,-5.7e-7 -8.725e-5,0 z"
     inkscape:connector-curvature="0" />
  <polygon
     id="polygon20"
     style="font-style:normal;font-variant:normal;font-weight:normal;font-stretch:normal;letter-spacing:normal;word-spacing:normal;text-anchor:start;fill:#ffffff;fill-opacity:1;fill-rule:nonzero;stroke:#ffffff;stroke-width:0;stroke-linecap:butt;stroke-linejoin:round;stroke-miterlimit:10.43299961;stroke-dasharray:none;stroke-dashoffset:0;stroke-opacity:1"
     transform="matrix(1.5000386e-4,0,0,-1.5000386e-4,-0.01915175,0.10540095)"
     points="248.16,465.77 264.96,465.77 264.96,566.32 285.84,566.32 285.84,581.69 227.04,581.69 227.04,566.32 248.16,566.32 " />
  <path
     id="path22"
     style="font-style:normal;font-variant:normal;font-weight:normal;font-stretch:normal;letter-spacing:normal;word-spacing:normal;text-anchor:start;fill:#ffffff;fill-opacity:1;fill-rule:nonzero;stroke:#ffffff;stroke-width:0;stroke-linecap:round;stroke-linejoin:round;stroke-miterlimit:10.43299961;stroke-dasharray:none;stroke-dashoffset:0;stroke-opacity:1"
     d="m 0.0310484,0.01753262 c -0.00196,2.558e-5 -0.003162,8.601e-4 -0.004083,0.002917 -7.2002e-4,0.001656 -9.7233e-4,0.003421 -9.7233e-4,0.006049 0,0.0027 2.5231e-4,0.004356 9.7233e-4,0.006046 8.6402e-4,0.002088 0.002089,0.00299 0.004177,0.00299 0.001944,0 0.003204,-9.0165e-4 0.004068,-0.00299 7.2002e-4,-0.001656 9.7233e-4,-0.003346 9.7233e-4,-0.006046 l -3.02e-6,-2.4536e-4 V 0.026017 l -6.06e-6,-2.3324e-4 -3.03e-6,-2.2718e-4 -9.09e-6,-2.2416e-4 -9.09e-6,-2.1809e-4 -9.08e-6,-2.1204e-4 -1.212e-5,-2.09e-4 -1.515e-5,-2.0598e-4 -1.514e-5,-1.9992e-4 -3.635e-5,-3.9075e-4 -4.544e-5,-3.7258e-4 -5.452e-5,-3.6652e-4 -6.058e-5,-3.5137e-4 -6.967e-5,-3.4229e-4 -7.876e-5,-3.3622e-4 -9.087e-5,-3.2715e-4 -9.693e-5,-3.2411e-4 -1.1207e-4,-3.2108e-4 -1.1814e-4,-3.1502e-4 -1.2722e-4,-3.1806e-4 c -8.6402e-4,-0.00216 -0.002088,-0.00299 -0.004068,-0.00299 -3.15e-5,0 -6.278e-5,-4.1e-7 -9.4e-5,3.8e-7 z m 7.876e-5,0.002411 c 4.34e-6,-2e-8 1.078e-5,0 1.514e-5,0 0.001008,0 0.001691,6.8742e-4 0.002123,0.002235 3.6001e-4,0.001259 5.3918e-4,0.002339 5.3918e-4,0.004319 v 1.8477e-4 1.8175e-4 l -3.03e-6,1.7568e-4 -3.03e-6,1.6963e-4 -3.03e-6,1.666e-4 -3.03e-6,1.6054e-4 -6.06e-6,1.5752e-4 -6.06e-6,1.5448e-4 -6.05e-6,1.4842e-4 -9.09e-6,1.454e-4 -9.09e-6,1.4237e-4 -9.09e-6,1.3933e-4 -2.423e-5,2.7262e-4 -2.423e-5,2.605e-4 -3.332e-5,2.5445e-4 -3.938e-5,2.5141e-4 -4.544e-5,2.4536e-4 -4.846e-5,2.4838e-4 -5.755e-5,2.4233e-4 -6.361e-5,2.4838e-4 -6.967e-5,2.5444e-4 -7.573e-5,2.5748e-4 c -4.3201e-4,0.001476 -0.001115,0.002126 -0.002123,0.002126 -0.001116,0 -0.001764,-6.5038e-4 -0.002196,-0.002126 -3.9601e-4,-0.001404 -5.7553e-4,-0.00252 -5.7553e-4,-0.004392 0,-0.00198 1.0752e-4,-0.003131 5.7553e-4,-0.004462 4.3032e-4,-0.00147 0.001073,-0.002157 0.002181,-0.002163 z"
     inkscape:connector-curvature="0" />
  <path
     id="path26"
     style="font-style:normal;font-variant:normal;font-weight:normal;font-stretch:normal;letter-spacing:normal;word-spacing:normal;text-anchor:start;fill:#ffffff;fill-opacity:1;fill-rule:nonzero;stroke:#ffffff;stroke-width:0;stroke-linecap:round;stroke-linejoin:round;stroke-miterlimit:10.43299961;stroke-dasharray:none;stroke-dashoffset:0;stroke-opacity:1"
     d="m 0.03992664,0.01814449 v 0.01739 h 0.00252 v -0.007633 h 0.002663 c 0.002916,0 0.004574,-0.001692 0.004574,-0.004895 l -6.06e-6,-2.6959e-4 -1.514e-5,-2.6656e-4 -2.727e-5,-2.5747e-4 -3.635e-5,-2.5141e-4 -4.846e-5,-2.4839e-4 -5.452e-5,-2.3627e-4 -6.664e-5,-2.3627e-4 -7.573e-5,-2.2415e-4 -8.784e-5,-2.1809e-4 -9.391e-5,-2.1204e-4 -1.0298e-4,-2.0295e-4 -1.1208e-4,-1.9689e-4 -1.2116e-4,-1.878e-4 -1.3025e-4,-1.8174e-4 -1.3631e-4,-1.7266e-4 -1.454e-4,-1.6357e-4 -1.5448e-4,-1.5448e-4 -1.6357e-4,-1.454e-4 -1.6963e-4,-1.3934e-4 -1.7569e-4,-1.2722e-4 -1.8477e-4,-1.1813e-4 -1.9386e-4,-1.0905e-4 -1.9689e-4,-1.0299e-4 -2.0598e-4,-8.784e-5 -2.1204e-4,-8.179e-5 -2.1809e-4,-6.967e-5 -2.2718e-4,-6.058e-5 -2.3021e-4,-4.846e-5 -2.3627e-4,-3.938e-5 -2.4233e-4,-2.726e-5 -2.4838e-4,-1.818e-5 -2.5444e-4,-6.06e-6 z m 0.00252,0.002414 h 0.002557 c 0.001332,0 0.002229,9.7146e-4 0.002229,0.002448 l -3.03e-6,1.4842e-4 -6.06e-6,1.454e-4 -1.211e-5,1.4237e-4 -1.515e-5,1.3631e-4 -1.817e-5,1.3327e-4 -2.726e-5,1.3026e-4 -3.029e-5,1.2116e-4 -3.332e-5,1.2116e-4 -3.938e-5,1.1208e-4 -4.241e-5,1.1207e-4 -4.544e-5,1.0602e-4 -5.452e-5,9.996e-5 -5.452e-5,9.693e-5 -6.058e-5,9.087e-5 -6.361e-5,9.088e-5 -6.967e-5,8.178e-5 -7.27e-5,7.573e-5 -7.573e-5,7.27e-5 -8.178e-5,6.967e-5 -8.482e-5,6.361e-5 -9.087e-5,5.755e-5 -9.39e-5,5.452e-5 -9.693e-5,4.847e-5 -1.0299e-4,4.24e-5 -1.0602e-4,3.938e-5 -1.0905e-4,3.332e-5 -1.1207e-4,2.726e-5 -1.2117e-4,2.424e-5 -1.2116e-4,1.817e-5 -1.2419e-4,1.515e-5 -1.2722e-4,6.06e-6 -1.3328e-4,3.02e-6 h -0.002557 z"
     inkscape:connector-curvature="0" />
</svg>
