<?xml version="1.0" encoding="UTF-8" standalone="no"?>
<svg
   xmlns:dc="http://purl.org/dc/elements/1.1/"
   xmlns:cc="http://creativecommons.org/ns#"
   xmlns:rdf="http://www.w3.org/1999/02/22-rdf-syntax-ns#"
   xmlns:svg="http://www.w3.org/2000/svg"
   xmlns="http://www.w3.org/2000/svg"
   xmlns:sodipodi="http://sodipodi.sourceforge.net/DTD/sodipodi-0.dtd"
   xmlns:inkscape="http://www.inkscape.org/namespaces/inkscape"
   width="32"
   height="32"
   viewBox="0 0 31.999999 32.000001"
   version="1.1"
   id="svg4"
   sodipodi:docname="trashcan.svg"
   inkscape:version="0.92.4 (5da689c313, 2019-01-14)">
  <metadata
     id="metadata10">
    <rdf:RDF>
      <cc:Work
         rdf:about="">
        <dc:format>image/svg+xml</dc:format>
        <dc:type
           rdf:resource="http://purl.org/dc/dcmitype/StillImage" />
        <dc:title></dc:title>
      </cc:Work>
    </rdf:RDF>
  </metadata>
  <defs
     id="defs8" />
  <sodipodi:namedview
     pagecolor="#ffffff"
     bordercolor="#666666"
     borderopacity="1"
     objecttolerance="10"
     gridtolerance="10"
     guidetolerance="10"
     inkscape:pageopacity="0"
     inkscape:pageshadow="2"
     inkscape:window-width="1920"
     inkscape:window-height="1015"
     id="namedview6"
     showgrid="false"
     units="px"
     fit-margin-top="0"
     fit-margin-left="0"
     fit-margin-right="0"
     fit-margin-bottom="0"
     inkscape:zoom="2.6074562"
     inkscape:cx="-130.96207"
     inkscape:cy="-47.750778"
     inkscape:window-x="0"
     inkscape:window-y="0"
     inkscape:window-maximized="1"
     inkscape:current-layer="svg4" />
  <path
     d="M 26.285714,2.28571 H 21.714286 C 21.714286,1.02857 20.685714,0 19.428571,0 H 12.571429 C 11.314285,0 10.285714,1.02857 10.285714,2.28571 H 5.714285 c -1.257143,0 -2.285714,1.02857 -2.285714,2.28572 v 2.28571 c 0,1.25714 1.028571,2.28572 2.285714,2.28572 V 29.71429 C 5.714285,30.97142 6.742857,32 8,32 h 16 c 1.257143,0 2.285714,-1.02858 2.285714,-2.28571 V 9.14286 c 1.257143,0 2.285715,-1.02858 2.285715,-2.28572 V 4.57143 c 0,-1.25715 -1.028572,-2.28572 -2.285715,-2.28572 z M 24,29.71429 H 8 V 9.14286 h 2.285714 v 18.28571 h 2.285715 V 9.14286 h 2.285714 v 18.28571 h 2.285714 V 9.14286 h 2.285714 v 18.28571 h 2.285715 V 9.14286 H 24 Z M 26.285714,6.85714 H 5.714285 V 4.57143 h 20.571429 z"
     id="path2"
     inkscape:connector-curvature="0"
     style="fill-rule:evenodd;stroke-width:0.0625" />
</svg>
