<?xml version="1.0" encoding="UTF-8" standalone="no"?>
<!-- Svg Vector Icons : http://www.onlinewebfonts.com/icon -->

<svg
   xmlns:dc="http://purl.org/dc/elements/1.1/"
   xmlns:cc="http://creativecommons.org/ns#"
   xmlns:rdf="http://www.w3.org/1999/02/22-rdf-syntax-ns#"
   xmlns:svg="http://www.w3.org/2000/svg"
   xmlns="http://www.w3.org/2000/svg"
   xmlns:sodipodi="http://sodipodi.sourceforge.net/DTD/sodipodi-0.dtd"
   xmlns:inkscape="http://www.inkscape.org/namespaces/inkscape"
   version="1.1"
   x="0px"
   y="0px"
   viewBox="0 0 1024 1024"
   enable-background="new 0 0 1000 1000"
   xml:space="preserve"
   id="svg10"
   sodipodi:docname="clicked.svg"
   width="512"
   height="512"
   inkscape:version="0.92.4 (5da689c313, 2019-01-14)"><defs
   id="defs14" /><sodipodi:namedview
   pagecolor="#ffffff"
   bordercolor="#666666"
   borderopacity="1"
   objecttolerance="10"
   gridtolerance="10"
   guidetolerance="10"
   inkscape:pageopacity="0"
   inkscape:pageshadow="2"
   inkscape:window-width="1920"
   inkscape:window-height="1015"
   id="namedview12"
   showgrid="false"
   scale-x="2"
   inkscape:zoom="0.944"
   inkscape:cx="-109.19014"
   inkscape:cy="351.2145"
   inkscape:window-x="0"
   inkscape:window-y="0"
   inkscape:window-maximized="1"
   inkscape:current-layer="svg10" />
<metadata
   id="metadata2"> Svg Vector Icons : http://www.onlinewebfonts.com/icon <rdf:RDF><cc:Work
     rdf:about=""><dc:format>image/svg+xml</dc:format><dc:type
       rdf:resource="http://purl.org/dc/dcmitype/StillImage" /><dc:title></dc:title></cc:Work></rdf:RDF></metadata>

<path
   style="fill:none;fill-rule:evenodd;stroke:#000000;stroke-width:64;stroke-linecap:butt;stroke-linejoin:round;stroke-miterlimit:4;stroke-dasharray:none;stroke-opacity:1"
   d="M 311.03223,798.95373 172.82203,532.74655 c -22.33052,-43.0109 1.98649,-87.51004 58.965,-64.77264 52.41455,20.91615 136.5056,109.39907 136.5056,109.39907 v 41.84784 -517.86876 c 0,-91.7862877 122.8165,-93.9049318 122.8165,0 v 388.47059 -204.2353 c 0,-40.93883 122.8165,-40.93883 122.8165,0 V 516.04113 330.05794 c 0,-40.93883 122.8165,-40.93883 122.8165,0 V 542.25962 394.22578 c 0,-40.93883 122.8165,-72.84799 122.8165,40 v 306.35318 c 0,65.78097 -29.44353,247.69307 -91.02944,252.7731 H 501.86604 c -79.12423,0 -140.55927,-97.56435 -190.83381,-194.39833 z"
   id="path814"
   inkscape:connector-curvature="0"
   sodipodi:nodetypes="sssccsscsscsscssscss" /></svg>