<?xml version="1.0" encoding="UTF-8" standalone="no"?>
<!-- Svg Vector Icons : http://www.onlinewebfonts.com/icon -->

<svg
   xmlns:dc="http://purl.org/dc/elements/1.1/"
   xmlns:cc="http://creativecommons.org/ns#"
   xmlns:rdf="http://www.w3.org/1999/02/22-rdf-syntax-ns#"
   xmlns:svg="http://www.w3.org/2000/svg"
   xmlns="http://www.w3.org/2000/svg"
   xmlns:sodipodi="http://sodipodi.sourceforge.net/DTD/sodipodi-0.dtd"
   xmlns:inkscape="http://www.inkscape.org/namespaces/inkscape"
   version="1.1"
   x="0px"
   y="0px"
   viewBox="0 0 1024 1024"
   enable-background="new 0 0 1000 1000"
   xml:space="preserve"
   id="svg10"
   sodipodi:docname="clicked.svg"
   width="512"
   height="512"
   inkscape:version="0.92.4 (5da689c313, 2019-01-14)"><defs
   id="defs14" /><sodipodi:namedview
   pagecolor="#ffffff"
   bordercolor="#666666"
   borderopacity="1"
   objecttolerance="10"
   gridtolerance="10"
   guidetolerance="10"
   inkscape:pageopacity="0"
   inkscape:pageshadow="2"
   inkscape:window-width="956"
   inkscape:window-height="1015"
   id="namedview12"
   showgrid="false"
   scale-x="2"
   inkscape:zoom="0.6675088"
   inkscape:cx="300.16805"
   inkscape:cy="300.87417"
   inkscape:window-x="0"
   inkscape:window-y="0"
   inkscape:window-maximized="0"
   inkscape:current-layer="svg10" />
<metadata
   id="metadata2"> Svg Vector Icons : http://www.onlinewebfonts.com/icon <rdf:RDF><cc:Work
     rdf:about=""><dc:format>image/svg+xml</dc:format><dc:type
       rdf:resource="http://purl.org/dc/dcmitype/StillImage" /><dc:title></dc:title></cc:Work></rdf:RDF></metadata>
<g
   id="g8"
   transform="translate(12.007434,12.001331)"><g
     transform="matrix(0.1,0,0,-0.1,0,511)"
     id="g6"><path
       d="m 3782.7,4976.6 c -140.4,-51.1 -283.4,-153.2 -360,-252.8 -148.1,-194.1 -143,-84.3 -143,-2795.8 0,-1368.6 5.5415,-2227.41441 -2.0585,-2217.21441 C 3231.8556,-154.71142 2991.0644,431.60526 2776.7,613.1 2439.7,894 2324.8,957.8 2105.2,970.6 1668.6,1001.2 1313.7,666.8 1313.7,225 c 0,-224.7 63.8,-367.7 268.1,-607.7 137.9,-163.4 158.3,-204.3 349.8,-727.7 260.4,-717.5 594.9,-1557.5 651.1,-1639.2 25.5,-35.7 339.6,-349.8 697,-699.6 357.5,-347.3 661.3,-651.1 676.6,-674.1 12.8,-25.5 23,-143 25.5,-265.5 0,-217 2.5,-224.7 84.2,-306.4 l 81.7,-84.2 1787.3,-7.7 c 1937.9,-7.7 1886.9,-10.2 1976.2,130.2 20.4,33.2 43.4,168.5 53.6,337 15.3,263 23,293.6 120,472.4 260.4,490.2 459.6,1080 543.8,1616.2 63.8,403.4 76.6,1187.3 28.1,1881.7 -22.9,329.4 -53.6,865.6 -68.9,1187.3 -25.5,584.7 -28.1,587.2 -107.2,753.2 -145.5,291.1 -390.6,426.4 -732.8,403.4 -140.4,-10.2 -206.8,-30.6 -303.8,-89.4 l -122.6,-79.1 -30.6,135.3 c -117.4,523.4 -717.5,760.9 -1161.7,459.6 -53.6,-35.7 -99.6,-63.8 -102.1,-58.7 -5.1,5.1 -20.4,46 -40.8,91.9 -43.4,109.8 -201.7,270.6 -337,339.6 -137.9,68.9 -388.1,91.9 -546.4,48.5 -66.4,-20.4 -171.1,-71.5 -232.4,-120 -61.3,-46 -114.9,-84.3 -122.5,-84.3 -7.6,0 -12.8,400.9 -12.8,888.5 0,988.1 -7.6,1036.6 -163.4,1223 -186.5,214.6 -543.9,319.3 -789,227.4 z m 459.6,-485.2 84.2,-91.9 V 2722 c 0,-924.3 10.2,-2243.5 23,-2297.1 63.8,-265.5 393.2,-347.2 548.9,-137.9 51.1,68.9 53.6,112.4 66.4,753.2 12.8,615.3 17.9,1209.4 61.3,1273.2 135.3,201.7 451.9,191.5 577,-15.3 46,-74.1 51.1,-930.2 51.1,-1405.1 0,-574.5 10.2,-615.3 148.1,-697 104.7,-61.3 229.8,-43.4 319.2,48.5 63.8,61.3 63.8,74 74.1,467.2 7.6,395.8 10.2,1203.4 79.1,1295.3 135.3,178.7 380.4,186.4 541.3,17.9 146.5391,-127.3689 124.6251,-1124.155 129.4,-1317.5 12.8,-561.7 -9.4,-628.1 128.5,-679.2 125.1,-48.5 174.4547,-36.91771 293.1585,16.00339 80.6602,35.96036 88.8057,147.4961 100.0415,346.59661 13.9562,247.3065 -34,1082.6 96.2,1159.2 107.2,63.8 348.1,61.3 434.9,-2.5 153.2,-114.9 158.3,-130.2 183.8,-735.3 15.3,-308.9 38.3,-699.6 51.1,-868.1 46,-536.2 61.3,-1483.4 28.1,-1805.2 -61.3,-633.2 -196.6,-1097.9 -482.6,-1680 -191.5,-388.1 -194.1,-400.9 -204.3,-617.9 l -10.2,-224.7 H 5970.8 4377.6 v 153.2 c 0,265.5 -38.3,314 -789,1046.8 l -679.2,661.3 -209.4,531.1 c -114.9,291.1 -301.3,781.3 -413.6,1087.7 -199.2,543.9 -209.4,564.3 -372.8,753.2 -91.8,109.8 -178.6,237.5 -191.4,288.5 -61.3,217 109.8,431.5 344.7,431.5 122.6,0 160.8,-23 434.1,-257.9 168.5,-143 245.1,-229.8 280.9,-309 25.5,-61.3 122.6,-275.8 217,-480 94.4,-204.2 186.4,-400.9 201.7,-441.7 15.3,-38.3 56.2,-81.7 91.9,-94.5 86.8,-33.2 260.4,5.1 326.8,71.5 48.5,48.5 48.5,99.6 46,2471.6 0,1332.8 5.1,2525.2 12.8,2647.7 12.8,191.5 25.5,237.5 81.7,301.3 84.3,102.1 145.5,127.7 286,114.9 89.2,-7.6 130.1,-28 196.5,-102.1 z"
       id="path4"
       inkscape:connector-curvature="0"
       sodipodi:nodetypes="ccscccsccccccccccccccccccccccccccssccccscccccscccccccssccccccccccsccccccsccsccsccccc" /></g></g>
</svg>