<?xml version="1.0" encoding="UTF-8" standalone="no"?>
<svg
   xmlns:dc="http://purl.org/dc/elements/1.1/"
   xmlns:cc="http://creativecommons.org/ns#"
   xmlns:rdf="http://www.w3.org/1999/02/22-rdf-syntax-ns#"
   xmlns:svg="http://www.w3.org/2000/svg"
   xmlns="http://www.w3.org/2000/svg"
   xmlns:sodipodi="http://sodipodi.sourceforge.net/DTD/sodipodi-0.dtd"
   xmlns:inkscape="http://www.inkscape.org/namespaces/inkscape"
   version="1.2"
   width="32"
   height="32"
   viewBox="0 0 1.75 2"
   aria-hidden="true"
   id="svg4"
   sodipodi:docname="question.svg"
   inkscape:version="0.92.4 (5da689c313, 2019-01-14)">
  <metadata
     id="metadata10">
    <rdf:RDF>
      <cc:Work
         rdf:about="">
        <dc:format>image/svg+xml</dc:format>
        <dc:type
           rdf:resource="http://purl.org/dc/dcmitype/StillImage" />
        <dc:title></dc:title>
      </cc:Work>
    </rdf:RDF>
  </metadata>
  <defs
     id="defs8" />
  <sodipodi:namedview
     pagecolor="#ffffff"
     bordercolor="#666666"
     borderopacity="1"
     objecttolerance="10"
     gridtolerance="10"
     guidetolerance="10"
     inkscape:pageopacity="0"
     inkscape:pageshadow="2"
     inkscape:window-width="1920"
     inkscape:window-height="1015"
     id="namedview6"
     showgrid="false"
     inkscape:zoom="0.921875"
     inkscape:cx="-144.81356"
     inkscape:cy="128"
     inkscape:window-x="0"
     inkscape:window-y="0"
     inkscape:window-maximized="1"
     inkscape:current-layer="svg4" />
  <path
     d="M 0.75,1.25 H 1 V 1.5 H 0.75 Z M 1.25,0.8125 C 1.25,1.08 1,1.125 1,1.125 H 0.75 C 0.75,1.05625 0.80625,1 0.875,1 H 0.9375 C 0.9725,1 1,0.9725 1,0.9375 V 0.8125 C 1,0.7775 0.9725,0.75 0.9375,0.75 H 0.8125 C 0.7775,0.75 0.75,0.7775 0.75,0.8125 V 0.875 H 0.5 C 0.5,0.6875 0.6875,0.5 0.875,0.5 1.0625,0.5 1.25,0.625 1.25,0.8125 Z M 0.875,0.2875 c 0.3925,0 0.7125,0.32 0.7125,0.7125 0,0.3925 -0.32,0.7125 -0.7125,0.7125 A 0.71375,0.71375 0 0 1 0.1625,1 c 0,-0.3925 0.32,-0.7125 0.7125,-0.7125 z m 0,-0.1625 C 0.3925,0.125 0,0.5175 0,1 0,1.4825 0.3925,1.875 0.875,1.875 1.3575,1.875 1.75,1.4825 1.75,1 1.75,0.5175 1.3575,0.125 0.875,0.125 Z"
     id="path2"
     inkscape:connector-curvature="0"
     style="fill-rule:evenodd;stroke-width:1" />
</svg>
