<?xml version="1.0" encoding="UTF-8" standalone="no"?>
<svg
   xmlns:dc="http://purl.org/dc/elements/1.1/"
   xmlns:cc="http://creativecommons.org/ns#"
   xmlns:rdf="http://www.w3.org/1999/02/22-rdf-syntax-ns#"
   xmlns:svg="http://www.w3.org/2000/svg"
   xmlns="http://www.w3.org/2000/svg"
   xmlns:sodipodi="http://sodipodi.sourceforge.net/DTD/sodipodi-0.dtd"
   xmlns:inkscape="http://www.inkscape.org/namespaces/inkscape"
   width="512"
   height="512"
   viewBox="0 0 512 512"
   version="1.1"
   id="svg4"
   sodipodi:docname="sync.svg"
   inkscape:version="0.92.4 (5da689c313, 2019-01-14)">
  <metadata
     id="metadata10">
    <rdf:RDF>
      <cc:Work
         rdf:about="">
        <dc:format>image/svg+xml</dc:format>
        <dc:type
           rdf:resource="http://purl.org/dc/dcmitype/StillImage" />
        <dc:title></dc:title>
      </cc:Work>
    </rdf:RDF>
  </metadata>
  <defs
     id="defs8" />
  <sodipodi:namedview
     pagecolor="#ffffff"
     bordercolor="#666666"
     borderopacity="1"
     objecttolerance="10"
     gridtolerance="10"
     guidetolerance="10"
     inkscape:pageopacity="0"
     inkscape:pageshadow="2"
     inkscape:window-width="956"
     inkscape:window-height="1015"
     id="namedview6"
     showgrid="false"
     inkscape:zoom="0.16296602"
     inkscape:cx="648.53662"
     inkscape:cy="725.8383"
     inkscape:window-x="0"
     inkscape:window-y="0"
     inkscape:window-maximized="0"
     inkscape:current-layer="svg4" />
  <path
     d="M 436.88895,230.40001 A 177.06667,177.06667 0 0 1 385.68895,384 185.42933,185.42933 0 0 1 154.86228,407.04 l 49.92,-48.63999 L 21.315618,332.8 46.915619,512 102.80895,458.24 c 100.69333,74.24 243.2,66.98667 334.50667,-23.04 a 250.70934,250.70934 0 0 0 74.24,-190.29334 z M 126.27562,128 a 185.42933,185.42933 0 0 1 230.82667,-23.04 l -49.92,48.64 183.46666,25.6 -25.6,-179.200005 -55.89333,53.76 c -100.69333,-74.24 -243.2,-66.98666 -334.933335,23.04 C 21.315618,129.28001 -2.5777157,198.40001 0.40895104,267.09334 L 75.075619,282.02667 A 177.92,177.92 0 0 1 126.27562,128 Z"
     id="path2"
     inkscape:connector-curvature="0"
     style="fill-rule:evenodd;stroke-width:1" />
</svg>
