<?xml version="1.0" encoding="UTF-8" standalone="no"?>
<!-- Created with Inkscape (http://www.inkscape.org/) -->

<svg
   xmlns:dc="http://purl.org/dc/elements/1.1/"
   xmlns:cc="http://creativecommons.org/ns#"
   xmlns:rdf="http://www.w3.org/1999/02/22-rdf-syntax-ns#"
   xmlns:svg="http://www.w3.org/2000/svg"
   xmlns="http://www.w3.org/2000/svg"
   xmlns:sodipodi="http://sodipodi.sourceforge.net/DTD/sodipodi-0.dtd"
   xmlns:inkscape="http://www.inkscape.org/namespaces/inkscape"
   width="512"
   height="512"
   viewBox="0 0 135.46666 135.46667"
   version="1.1"
   id="svg1617"
   sodipodi:docname="request.svg"
   inkscape:version="0.92.4 (5da689c313, 2019-01-14)">
  <defs
     id="defs1611" />
  <sodipodi:namedview
     id="base"
     pagecolor="#ffffff"
     bordercolor="#666666"
     borderopacity="1.0"
     inkscape:pageopacity="0.0"
     inkscape:pageshadow="2"
     inkscape:zoom="2.56"
     inkscape:cx="337.40431"
     inkscape:cy="391.09905"
     inkscape:document-units="mm"
     inkscape:current-layer="layer1"
     showgrid="false"
     inkscape:window-width="1920"
     inkscape:window-height="1015"
     inkscape:window-x="0"
     inkscape:window-y="0"
     inkscape:window-maximized="1"
     fit-margin-top="0"
     fit-margin-left="0"
     fit-margin-right="0"
     fit-margin-bottom="0"
     units="px" />
  <metadata
     id="metadata1614">
    <rdf:RDF>
      <cc:Work
         rdf:about="">
        <dc:format>image/svg+xml</dc:format>
        <dc:type
           rdf:resource="http://purl.org/dc/dcmitype/StillImage" />
        <dc:title></dc:title>
      </cc:Work>
    </rdf:RDF>
  </metadata>
  <g
     inkscape:label="Layer 1"
     inkscape:groupmode="layer"
     id="layer1"
     transform="translate(-58.222284,-130.23288)">
    <path
       inkscape:connector-curvature="0"
       d="m 99.189555,217.95386 h 51.098235 c 3.36115,0 6.0845,-2.77261 6.0845,-6.1324 0,-3.36024 -2.72335,-6.13125 -6.0845,-6.13125 H 99.189555 c -3.358634,0 -6.084274,2.77124 -6.084274,6.13125 -2.29e-4,3.36001 2.72541,6.1324 6.084274,6.1324 z"
       id="path4"
       style="stroke-width:0.22918013" />
    <path
       inkscape:connector-curvature="0"
       d="M 152.72191,230.08505 H 99.189555 c -3.358634,0 -6.084274,2.70662 -6.084274,6.06617 0,3.36002 2.72564,6.06778 6.084274,6.06778 h 53.532575 c 3.35864,0 6.08451,-2.70754 6.08451,-6.06778 -2.3e-4,-3.35955 -2.72587,-6.06617 -6.08473,-6.06617 z"
       id="path6"
       style="stroke-width:0.22918013" />
    <path
       style="stroke-width:0.86619258"
       d="M 119.06445 103.86914 C 90.60916 103.86914 67.648437 126.11965 67.648438 153.5625 L 67.648438 462.14844 C 67.648438 489.59627 90.60916 512 119.06445 512 L 392.93555 512 C 421.39085 512 444.35156 489.59548 444.35156 462.14844 L 444.35156 194.89648 L 352.25977 103.86914 L 294.35938 103.86914 L 294.35938 139.0625 L 334.39648 139.0625 L 334.39648 179.00781 C 334.39648 196.56992 349.14614 210.85942 367.3457 211.03906 L 407.86914 211.43945 L 407.86914 462.14844 C 407.86914 470.02785 401.09853 476.32617 392.93555 476.32617 L 119.06445 476.32617 C 110.90145 476.32617 104.13086 470.02785 104.13086 462.14844 L 104.13086 153.5625 C 104.13086 145.68396 119.06445 139.0625 119.06445 139.0625 L 124.82812 139.0625 L 124.82812 103.86914 L 119.06445 103.86914 z M 192.14844 103.86914 L 192.14844 139.0625 L 227.03906 139.0625 L 227.03906 103.86914 L 192.14844 103.86914 z "
       transform="matrix(0.26458333,0,0,0.26458333,58.222284,130.23288)"
       id="path8" />
    <g
       id="g844">
      <path
         inkscape:connector-curvature="0"
         id="path2173-6"
         d="M 100.15565,191.63978 V 134.65706"
         style="vector-effect:none;fill:none;fill-opacity:1;fill-rule:evenodd;stroke:#000000;stroke-width:8.65021324;stroke-linecap:round;stroke-linejoin:round;stroke-miterlimit:4;stroke-dasharray:none;stroke-dashoffset:0;stroke-opacity:1"
         sodipodi:nodetypes="cc" />
      <path
         inkscape:connector-curvature="0"
         id="path2181-3"
         d="M 100.15565,134.65706 85.879221,151.68904"
         style="opacity:1;vector-effect:none;fill:none;fill-opacity:1;fill-rule:evenodd;stroke:#000000;stroke-width:8.65021324;stroke-linecap:round;stroke-linejoin:round;stroke-miterlimit:4;stroke-dasharray:none;stroke-dashoffset:0;stroke-opacity:1" />
      <path
         inkscape:connector-curvature="0"
         id="path2181-3-9"
         d="M 114.43208,151.68904 100.15565,134.65706"
         style="opacity:1;vector-effect:none;fill:none;fill-opacity:1;fill-rule:evenodd;stroke:#000000;stroke-width:8.65021324;stroke-linecap:round;stroke-linejoin:round;stroke-miterlimit:4;stroke-dasharray:none;stroke-dashoffset:0;stroke-opacity:1" />
      <path
         inkscape:connector-curvature="0"
         id="path2173-6-8"
         d="m 127.19891,134.65708 v 56.9827"
         style="vector-effect:none;fill:none;fill-opacity:1;fill-rule:evenodd;stroke:#000000;stroke-width:8.65021324;stroke-linecap:round;stroke-linejoin:round;stroke-miterlimit:4;stroke-dasharray:none;stroke-dashoffset:0;stroke-opacity:1"
         sodipodi:nodetypes="cc" />
      <path
         inkscape:connector-curvature="0"
         id="path2181-3-4"
         d="M 127.19891,191.63978 112.92248,174.60782"
         style="opacity:1;vector-effect:none;fill:none;fill-opacity:1;fill-rule:evenodd;stroke:#000000;stroke-width:8.65021324;stroke-linecap:round;stroke-linejoin:round;stroke-miterlimit:4;stroke-dasharray:none;stroke-dashoffset:0;stroke-opacity:1" />
      <path
         inkscape:connector-curvature="0"
         id="path2181-3-9-8"
         d="m 141.47534,174.60781 -14.27643,17.03197"
         style="opacity:1;vector-effect:none;fill:none;fill-opacity:1;fill-rule:evenodd;stroke:#000000;stroke-width:8.65021324;stroke-linecap:round;stroke-linejoin:round;stroke-miterlimit:4;stroke-dasharray:none;stroke-dashoffset:0;stroke-opacity:1" />
      <path
         inkscape:connector-curvature="0"
         id="path2173-6-8-1"
         d="m 127.19891,134.65708 v 56.9827"
         style="opacity:1;vector-effect:none;fill:none;fill-opacity:1;fill-rule:evenodd;stroke:#000000;stroke-width:8.65021324;stroke-linecap:round;stroke-linejoin:round;stroke-miterlimit:4;stroke-dasharray:none;stroke-dashoffset:0;stroke-opacity:1"
         sodipodi:nodetypes="cc" />
    </g>
  </g>
</svg>
