<?xml version="1.0" encoding="UTF-8" standalone="no"?>
<svg
   xmlns:dc="http://purl.org/dc/elements/1.1/"
   xmlns:cc="http://creativecommons.org/ns#"
   xmlns:rdf="http://www.w3.org/1999/02/22-rdf-syntax-ns#"
   xmlns:svg="http://www.w3.org/2000/svg"
   xmlns="http://www.w3.org/2000/svg"
   xmlns:sodipodi="http://sodipodi.sourceforge.net/DTD/sodipodi-0.dtd"
   xmlns:inkscape="http://www.inkscape.org/namespaces/inkscape"
   width="32"
   height="32"
   viewBox="0 0 32 32"
   version="1.1"
   id="svg4"
   sodipodi:docname="shield-x.svg"
   inkscape:version="0.92.4 (5da689c313, 2019-01-14)">
  <metadata
     id="metadata10">
    <rdf:RDF>
      <cc:Work
         rdf:about="">
        <dc:format>image/svg+xml</dc:format>
        <dc:type
           rdf:resource="http://purl.org/dc/dcmitype/StillImage" />
        <dc:title></dc:title>
      </cc:Work>
    </rdf:RDF>
  </metadata>
  <defs
     id="defs8" />
  <sodipodi:namedview
     pagecolor="#ffffff"
     bordercolor="#666666"
     borderopacity="1"
     objecttolerance="10"
     gridtolerance="10"
     guidetolerance="10"
     inkscape:pageopacity="0"
     inkscape:pageshadow="2"
     inkscape:window-width="1920"
     inkscape:window-height="1015"
     id="namedview6"
     showgrid="false"
     inkscape:zoom="0.92187501"
     inkscape:cx="-302.66796"
     inkscape:cy="-12.803709"
     inkscape:window-x="0"
     inkscape:window-y="0"
     inkscape:window-maximized="1"
     inkscape:current-layer="svg4"
     fit-margin-top="0"
     fit-margin-left="0"
     fit-margin-right="0"
     fit-margin-bottom="0" />
  <path
     d="m 13.3442,1.3000002 -12.74,3.675 V 16.03724 c 0,8.58088 9.6628,14.66276 12.74,14.66276 1.2348,0 3.528,-0.98 5.83296,-2.7048 L 17.87768,26.69572 C 16.06664,28.005 14.31636,28.74 13.3442,28.74 c -2.60288,0 -10.78,-5.2724 -10.78,-12.70864 V 6.4450002 l 10.78,-3.185 10.78,3.185 V 14.7358 l 0.9408,0.9408 1.0192,-1.0192 V 4.9750002 Z M 25.065,18.45 l -3.43,-3.43 -2.9008,2.9008 3.43,3.43 -3.43,3.43 2.9008,2.9008 3.43,-3.43 3.43,3.43 2.9008,-2.9008 -3.43,-3.43 3.43,-3.43 L 28.495,15.02 Z M 4.5242,7.9150002 l 8.82,-2.695 V 26.78 c -2.12856,0 -8.82,-4.46096 -8.82,-10.75256 z"
     id="path2"
     inkscape:connector-curvature="0"
     style="stroke-width:0.06125" />
</svg>
