<?xml version="1.0" encoding="UTF-8" standalone="no"?>
<svg
   xmlns:dc="http://purl.org/dc/elements/1.1/"
   xmlns:cc="http://creativecommons.org/ns#"
   xmlns:rdf="http://www.w3.org/1999/02/22-rdf-syntax-ns#"
   xmlns:svg="http://www.w3.org/2000/svg"
   xmlns="http://www.w3.org/2000/svg"
   xmlns:sodipodi="http://sodipodi.sourceforge.net/DTD/sodipodi-0.dtd"
   xmlns:inkscape="http://www.inkscape.org/namespaces/inkscape"
   width="512"
   height="512"
   viewBox="0 0 512.00001 512"
   version="1.1"
   id="svg4"
   sodipodi:docname="shield-edit.svg"
   inkscape:version="0.92.4 (5da689c313, 2019-01-14)">
  <metadata
     id="metadata10">
    <rdf:RDF>
      <cc:Work
         rdf:about="">
        <dc:format>image/svg+xml</dc:format>
        <dc:type
           rdf:resource="http://purl.org/dc/dcmitype/StillImage" />
        <dc:title></dc:title>
      </cc:Work>
    </rdf:RDF>
  </metadata>
  <defs
     id="defs8" />
  <sodipodi:namedview
     pagecolor="#ffffff"
     bordercolor="#666666"
     borderopacity="1"
     objecttolerance="10"
     gridtolerance="10"
     guidetolerance="10"
     inkscape:pageopacity="0"
     inkscape:pageshadow="2"
     inkscape:window-width="1920"
     inkscape:window-height="1015"
     id="namedview6"
     showgrid="false"
     inkscape:zoom="0.921875"
     inkscape:cx="107.46893"
     inkscape:cy="306.25424"
     inkscape:window-x="0"
     inkscape:window-y="0"
     inkscape:window-maximized="1"
     inkscape:current-layer="svg4"
     fit-margin-top="0"
     fit-margin-left="0"
     fit-margin-right="0"
     fit-margin-bottom="0" />
  <g
     id="g817"
     transform="translate(0,-16)">
    <path
       style="stroke-width:1"
       inkscape:connector-curvature="0"
       id="path2"
       d="m 62.478531,138.5 149.999999,-45 v 360 c -36.21,0 -149.999999,-74.46 -149.999999,-179.55 z" />
    <path
       id="path2-3"
       d="m 270.62201,402.44207 v 53.19009 h 53.19009 l 141.84015,-141.8402 -53.19006,-53.19007 z m 53.19009,35.46006 h -35.46006 v -35.46006 h 17.73003 v 17.73003 h 17.73003 z m 182.61924,-164.88921 -23.04906,23.04904 -53.19006,-53.19009 23.04903,-23.04903 a 17.659103,17.659103 0 0 1 24.99933,0 l 28.19076,28.19075 c 6.9147,6.9147 6.9147,18.0846 0,24.99933 z"
       style="fill-rule:evenodd;stroke-width:1"
       inkscape:connector-curvature="0" />
    <path
       sodipodi:nodetypes="ccssccsscccscccc"
       style="stroke-width:1"
       id="path821"
       d="M 211.11047,32 0,92 V 272.60798 C 0,412.70402 160.11917,512 211.11047,512 c 24.06659,0 66.50319,-12.55965 88.56095,-33.4155 l -59.37791,0.162 c -10.08672,6.15459 -10.52124,2.99766 -29.18304,1.2534 C 168.16614,475.98605 32.478531,393.92 32.478531,272.51198 V 116 L 211.11047,63.999997 389.74242,116 l 0.7191,112.06287 c 0.0263,4.09593 -0.4545,12.16 -0.4545,12.16 L 422.94015,202.36688 422.22105,92 Z"
       inkscape:connector-curvature="0" />
  </g>
</svg>
