<?xml version="1.0" encoding="UTF-8" standalone="no"?>
<svg
   xmlns:dc="http://purl.org/dc/elements/1.1/"
   xmlns:cc="http://creativecommons.org/ns#"
   xmlns:rdf="http://www.w3.org/1999/02/22-rdf-syntax-ns#"
   xmlns:svg="http://www.w3.org/2000/svg"
   xmlns="http://www.w3.org/2000/svg"
   xmlns:sodipodi="http://sodipodi.sourceforge.net/DTD/sodipodi-0.dtd"
   xmlns:inkscape="http://www.inkscape.org/namespaces/inkscape"
   width="32"
   height="32"
   viewBox="0 0 32 32"
   version="1.1"
   id="svg4"
   sodipodi:docname="shield-check.svg"
   inkscape:version="0.92.4 (5da689c313, 2019-01-14)">
  <metadata
     id="metadata10">
    <rdf:RDF>
      <cc:Work
         rdf:about="">
        <dc:format>image/svg+xml</dc:format>
        <dc:type
           rdf:resource="http://purl.org/dc/dcmitype/StillImage" />
        <dc:title></dc:title>
      </cc:Work>
    </rdf:RDF>
  </metadata>
  <defs
     id="defs8" />
  <sodipodi:namedview
     pagecolor="#ffffff"
     bordercolor="#666666"
     borderopacity="1"
     objecttolerance="10"
     gridtolerance="10"
     guidetolerance="10"
     inkscape:pageopacity="0"
     inkscape:pageshadow="2"
     inkscape:window-width="1920"
     inkscape:window-height="1015"
     id="namedview6"
     showgrid="false"
     fit-margin-top="0"
     fit-margin-left="0"
     fit-margin-right="0"
     fit-margin-bottom="0"
     inkscape:zoom="0.5"
     inkscape:cx="256"
     inkscape:cy="256"
     inkscape:window-x="0"
     inkscape:window-y="0"
     inkscape:window-maximized="1"
     inkscape:current-layer="svg4" />
  <path
     d="M 13.06,1.3 0.32,4.975 V 16.03724 C 0.32,24.61812 9.9828,30.7 13.06,30.7 c 1.45236,0 4.37472,-1.35632 7.056,-3.69264 l -1.39748,-1.1956 C 16.539,27.66788 14.23404,28.74 13.06,28.74 10.45712,28.74 2.28,23.4676 2.28,16.03136 V 6.445 L 13.06,3.26 23.84,6.445 v 9.58636 c 0,0.25088 -0.01,0.4998 -0.0274,0.7448 L 25.8,14.45748 V 4.975 Z m 9.8,19.6 -3.92,-2.94 -2.94,2.94 6.86,5.88 8.82,-9.8 -2.94,-2.94 z M 4.24,7.915 13.06,5.22 v 21.56 c -2.12856,0 -8.82,-4.46096 -8.82,-10.75256 z"
     id="path2"
     inkscape:connector-curvature="0"
     style="stroke-width:0.06125002" />
</svg>
