<?xml version="1.0" encoding="UTF-8" standalone="no"?>
<svg
   xmlns:dc="http://purl.org/dc/elements/1.1/"
   xmlns:cc="http://creativecommons.org/ns#"
   xmlns:rdf="http://www.w3.org/1999/02/22-rdf-syntax-ns#"
   xmlns:svg="http://www.w3.org/2000/svg"
   xmlns="http://www.w3.org/2000/svg"
   xmlns:sodipodi="http://sodipodi.sourceforge.net/DTD/sodipodi-0.dtd"
   xmlns:inkscape="http://www.inkscape.org/namespaces/inkscape"
   width="512"
   height="512"
   viewBox="0 0 512 512"
   version="1.1"
   id="svg4"
   sodipodi:docname="shield-x.svg"
   inkscape:version="0.92.4 (5da689c313, 2019-01-14)">
  <metadata
     id="metadata10">
    <rdf:RDF>
      <cc:Work
         rdf:about="">
        <dc:format>image/svg+xml</dc:format>
        <dc:type
           rdf:resource="http://purl.org/dc/dcmitype/StillImage" />
        <dc:title></dc:title>
      </cc:Work>
    </rdf:RDF>
  </metadata>
  <defs
     id="defs8" />
  <sodipodi:namedview
     pagecolor="#ffffff"
     bordercolor="#666666"
     borderopacity="1"
     objecttolerance="10"
     gridtolerance="10"
     guidetolerance="10"
     inkscape:pageopacity="0"
     inkscape:pageshadow="2"
     inkscape:window-width="1920"
     inkscape:window-height="1015"
     id="namedview6"
     showgrid="false"
     inkscape:zoom="0.65186407"
     inkscape:cx="-366.60732"
     inkscape:cy="24.198833"
     inkscape:window-x="0"
     inkscape:window-y="0"
     inkscape:window-maximized="1"
     inkscape:current-layer="svg4" />
  <path
     d="M 216.64,16 8.64,76 V 256.608 C 8.64,396.704 166.4,496 216.64,496 c 20.16,0 57.6,-16 95.232,-44.16 L 290.656,430.624 C 261.088,452 232.512,464 216.64,464 c -42.496,0 -176,-86.08 -176,-207.488 V 100 l 176,-52 176,52 V 235.36 L 408,250.72 424.64,234.08 V 76 Z M 408,296 l -56,-56 -47.36,47.36 56,56 -56,56 47.36,47.36 56,-56 56,56 47.36,-47.36 -56,-56 56,-56 L 464,240 Z M 72.64,124 l 144,-44 v 352 c -34.752,0 -144,-72.832 -144,-175.552 z"
     id="path2"
     inkscape:connector-curvature="0"
     style="stroke-width:1" />
</svg>
