<?xml version="1.0" encoding="UTF-8" standalone="no"?>
<svg
   xmlns:dc="http://purl.org/dc/elements/1.1/"
   xmlns:cc="http://creativecommons.org/ns#"
   xmlns:rdf="http://www.w3.org/1999/02/22-rdf-syntax-ns#"
   xmlns:svg="http://www.w3.org/2000/svg"
   xmlns="http://www.w3.org/2000/svg"
   xmlns:sodipodi="http://sodipodi.sourceforge.net/DTD/sodipodi-0.dtd"
   xmlns:inkscape="http://www.inkscape.org/namespaces/inkscape"
   width="512"
   height="512"
   viewBox="0 0 511.99998 512.00001"
   version="1.1"
   id="svg4"
   sodipodi:docname="trashcan.svg"
   inkscape:version="0.92.4 (5da689c313, 2019-01-14)">
  <metadata
     id="metadata10">
    <rdf:RDF>
      <cc:Work
         rdf:about="">
        <dc:format>image/svg+xml</dc:format>
        <dc:type
           rdf:resource="http://purl.org/dc/dcmitype/StillImage" />
        <dc:title></dc:title>
      </cc:Work>
    </rdf:RDF>
  </metadata>
  <defs
     id="defs8" />
  <sodipodi:namedview
     pagecolor="#ffffff"
     bordercolor="#666666"
     borderopacity="1"
     objecttolerance="10"
     gridtolerance="10"
     guidetolerance="10"
     inkscape:pageopacity="0"
     inkscape:pageshadow="2"
     inkscape:window-width="1920"
     inkscape:window-height="1015"
     id="namedview6"
     showgrid="false"
     units="px"
     fit-margin-top="0"
     fit-margin-left="0"
     fit-margin-right="0"
     fit-margin-bottom="0"
     inkscape:zoom="1.3037281"
     inkscape:cx="127.44102"
     inkscape:cy="296.60778"
     inkscape:window-x="0"
     inkscape:window-y="0"
     inkscape:window-maximized="1"
     inkscape:current-layer="svg4" />
  <path
     d="m 420.57143,36.571435 h -73.14286 c 0,-20.1143 -16.45714,-36.571400877983 -36.57143,-36.571400877983 H 201.14286 C 181.02857,3.4122017e-5 164.57143,16.457135 164.57143,36.571435 H 91.428569 c -20.114286,0 -36.571429,16.4571 -36.571429,36.5714 v 36.571495 c 0,20.1142 16.457143,36.5714 36.571429,36.5714 v 329.1429 c 0,20.1142 16.457141,36.5714 36.571431,36.5714 h 256 c 20.11429,0 36.57143,-16.4572 36.57143,-36.5714 v -329.1429 c 20.11429,0 36.57143,-16.4572 36.57143,-36.5714 V 73.142835 c 0,-20.1143 -16.45714,-36.5714 -36.57143,-36.5714 z M 384,475.42863 H 128 v -329.1429 h 36.57143 v 292.5714 h 36.57143 v -292.5714 h 36.57143 v 292.5714 h 36.57142 v -292.5714 h 36.57143 v 292.5714 h 36.57143 V 146.28573 H 384 Z m 36.57143,-365.7143 H 91.428569 V 73.142835 H 420.57143 Z"
     id="path2"
     inkscape:connector-curvature="0"
     style="fill-rule:evenodd;stroke-width:1" />
</svg>
